<svg width="20" height="16" viewBox="0 0 20 16" fill="none" xmlns="http://www.w3.org/2000/svg">
<path d="M13.3744 8.5582C12.4745 7.27309 10.9417 6.50574 9.27425 6.50574C7.60678 6.50574 6.07404 7.27309 5.17423 8.5582L3.00566 11.6548C2.64586 12.1686 2.47984 12.7622 2.52547 13.371C2.57109 13.9799 2.82423 14.547 3.25743 15.0113C3.69093 15.4751 4.26374 15.7922 4.91392 15.9282C5.56409 16.0643 6.23059 16.0062 6.84125 15.7605L6.88214 15.7438C8.4187 15.138 10.1745 15.1435 11.7071 15.7605C12.1025 15.9196 12.5213 16 12.944 16C13.1738 16 13.4049 15.9761 13.634 15.9284C14.2842 15.7925 14.857 15.4754 15.2906 15.0114C15.724 14.5476 15.9773 13.9804 16.023 13.3713C16.0688 12.7622 15.9028 12.1687 15.543 11.6547L13.3744 8.5582Z" fill="#0078B2"/>
<path d="M3.58964 8.55422C4.23478 8.32739 4.72489 7.85153 4.96964 7.21421C5.20264 6.60776 5.18356 5.9231 4.91577 5.2862C4.64783 4.64972 4.16047 4.13014 3.5434 3.82301C2.89521 3.50051 2.18308 3.44799 1.53901 3.67523C0.243241 4.13126 -0.351393 5.59697 0.213639 6.94325C0.664992 8.01481 1.71769 8.69123 2.78199 8.69123C3.05375 8.69123 3.32627 8.6471 3.58964 8.55422Z" fill="#0078B2"/>
<path d="M7.79732 6.12806C9.41719 6.12806 10.7351 4.7537 10.7351 3.06438C10.7351 1.37464 9.41719 0 7.79732 0C6.17761 0 4.85986 1.37464 4.85986 3.06438C4.85986 4.7537 6.17761 6.12806 7.79732 6.12806Z" fill="#0078B2"/>
<path d="M12.8707 6.88071H12.8708C13.12 6.95641 13.3742 6.99258 13.6273 6.99258C14.8087 6.99258 15.9599 6.20554 16.3992 4.99599C16.6522 4.29973 16.6356 3.56352 16.3524 2.92313C16.0561 2.25271 15.5069 1.7661 14.8059 1.55282C14.1048 1.33954 13.3466 1.42852 12.6708 1.80311C12.0252 2.16095 11.5305 2.74156 11.2778 3.43782C10.7445 4.9066 11.4591 6.45108 12.8707 6.88071Z" fill="#0078B2"/>
<path d="M19.0577 6.52336L19.0572 6.52294C17.9401 5.7676 16.2695 6.09499 15.3327 7.25314C14.3969 8.41185 14.5432 9.9696 15.6587 10.7255C16.0655 11.0014 16.5461 11.1332 17.038 11.1332C17.8954 11.1332 18.7875 10.7326 19.3838 9.996C20.3194 8.83729 20.1733 7.27954 19.0577 6.52336Z" fill="#0078B2"/>
</svg>
