<svg width="25" height="25" viewBox="0 0 25 25" fill="none" xmlns="http://www.w3.org/2000/svg">
<path d="M21.3432 3.65726C16.4658 -1.21909 8.53382 -1.21909 3.65645 3.65726C-1.21882 8.5336 -1.21882 16.4676 3.65645 21.344C6.09513 23.7816 9.29772 24.9999 12.5003 24.9999C15.703 24.9999 18.9045 23.7816 21.3432 21.344C26.2195 16.4677 26.2195 8.5336 21.3432 3.65726ZM17.658 16.1852C18.0655 16.5927 18.0655 17.2514 17.658 17.6588C17.4548 17.8621 17.188 17.9642 16.9212 17.9642C16.6544 17.9642 16.3876 17.8621 16.1844 17.6588L12.5003 13.9737L8.81726 17.6578C8.61301 17.861 8.34618 17.9631 8.08042 17.9631C7.81364 17.9631 7.54682 17.861 7.34359 17.6578C6.93612 17.2503 6.93612 16.5906 7.34359 16.1841L11.0266 12.5001L7.34257 8.81601C6.93509 8.40854 6.93509 7.74884 7.34257 7.3424C7.74901 6.93492 8.40871 6.93492 8.81618 7.3424L12.5002 11.0265L16.1843 7.3424C16.5918 6.93492 17.2505 6.93492 17.6579 7.3424C18.0654 7.74884 18.0654 8.40854 17.6579 8.81601L13.9739 12.5001L17.658 16.1852Z" fill="#E4E4E4"/>
</svg>
