<svg width="15" height="15" viewBox="0 0 15 15" fill="none" xmlns="http://www.w3.org/2000/svg">
<path d="M12.8057 2.19432C9.87931 -0.731439 5.1202 -0.731439 2.19383 2.19432C-0.731278 5.12007 -0.731278 9.88041 2.19383 12.8062C3.65702 14.2687 5.57854 14.9997 7.50008 14.9997C9.42163 14.9997 11.3425 14.2687 12.8057 12.8062C15.7314 9.88044 15.7314 5.12007 12.8057 2.19432ZM10.5946 9.71097C10.8391 9.95544 10.8391 10.3506 10.5946 10.5951C10.4727 10.7171 10.3126 10.7783 10.1525 10.7783C9.99248 10.7783 9.83239 10.7171 9.71045 10.5951L7.50005 8.38407L5.29027 10.5945C5.16772 10.7164 5.00762 10.7777 4.84817 10.7777C4.68811 10.7777 4.52801 10.7164 4.40608 10.5945C4.1616 10.35 4.1616 9.95418 4.40608 9.71032L6.61587 7.49992L4.40547 5.28952C4.16099 5.04504 4.16099 4.64923 4.40547 4.40536C4.64933 4.16088 5.04514 4.16088 5.28962 4.40536L7.50002 6.61576L9.71042 4.40536C9.9549 4.16088 10.3501 4.16088 10.5946 4.40536C10.8391 4.64923 10.8391 5.04504 10.5946 5.28952L8.38418 7.49992L10.5946 9.71097Z" fill="#E4E4E4"/>
</svg>
