<svg width="25" height="15" viewBox="0 0 25 15" fill="none" xmlns="http://www.w3.org/2000/svg">
<path d="M20.7455 8.60143C20.3413 8.07643 20.457 7.84286 20.7455 7.37357C20.7507 7.36821 24.0873 2.62607 24.4311 1.01786L24.4331 1.01679C24.604 0.430714 24.4331 0 23.6071 0H20.8736C20.1778 0 19.8569 0.369643 19.6851 0.783214C19.6851 0.783214 18.2933 4.20964 16.3245 6.43071C15.6891 7.0725 15.3953 7.27821 15.0484 7.27821C14.8776 7.27821 14.612 7.0725 14.612 6.48643V1.01679C14.612 0.313928 14.4172 0 13.8411 0H9.54304C9.10657 0 8.84718 0.327857 8.84718 0.633214C8.84718 1.29964 9.83159 1.45286 9.93368 3.32786V7.39607C9.93368 8.2875 9.77638 8.45143 9.42741 8.45143C8.49821 8.45143 6.24292 5.01107 4.90642 1.07357C4.63662 0.309643 4.37307 0.00107135 3.672 0.00107135H0.937532C0.157297 0.00107135 0 0.370714 0 0.784286C0 1.515 0.929199 5.14821 4.32098 9.94821C6.58148 13.2246 9.76492 15 12.6609 15C14.4015 15 14.614 14.6057 14.614 13.9275C14.614 10.7968 14.4568 10.5011 15.3287 10.5011C15.7328 10.5011 16.4287 10.7068 18.0537 12.2871C19.9111 14.1611 20.2163 15 21.2559 15H23.9894C24.7686 15 25.1634 14.6057 24.9363 13.8279C24.4165 12.1918 20.9039 8.82643 20.7455 8.60143Z" fill="#00A993"/>
</svg>
