<svg width="16" height="16" viewBox="0 0 16 16" fill="none" xmlns="http://www.w3.org/2000/svg">
<path d="M12.1641 10.585C11.6413 10.069 10.9888 10.069 10.4694 10.585C10.0732 10.9779 9.67696 11.3708 9.28742 11.7703C9.18087 11.8802 9.09098 11.9035 8.96113 11.8302C8.70476 11.6904 8.43175 11.5772 8.18537 11.4241C7.03671 10.7016 6.07451 9.77265 5.22217 8.72721C4.79933 8.20782 4.4231 7.6518 4.16008 7.02586C4.10681 6.89935 4.1168 6.81611 4.22001 6.7129C4.61621 6.33001 5.00243 5.93714 5.39197 5.54426C5.93467 4.99824 5.93467 4.35898 5.38864 3.80963C5.079 3.49666 4.76937 3.19035 4.45973 2.87738C4.1401 2.55776 3.8238 2.2348 3.50085 1.9185C2.97813 1.4091 2.32556 1.4091 1.80616 1.92183C1.40663 2.31471 1.02375 2.71757 0.617553 3.10378C0.241327 3.46003 0.0515485 3.89619 0.0115952 4.4056C-0.0516642 5.23463 0.151432 6.01704 0.437764 6.77949C1.02375 8.35764 1.91604 9.75933 2.9981 11.0445C4.45973 12.7825 6.20435 14.1575 8.2453 15.1497C9.16423 15.5958 10.1164 15.9388 11.1519 15.9954C11.8644 16.0353 12.4837 15.8555 12.9798 15.2995C13.3194 14.92 13.7023 14.5737 14.0618 14.2108C14.5945 13.6714 14.5979 13.0189 14.0685 12.4861C13.4359 11.8502 12.8 11.2176 12.1641 10.585Z" fill="white"/>
<path d="M11.5271 7.93148L12.7556 7.72173C12.5625 6.59305 12.0298 5.57091 11.2208 4.75853C10.3651 3.90286 9.28304 3.36349 8.0911 3.19702L7.91797 4.43224C8.84022 4.56209 9.67924 4.97827 10.3418 5.64083C10.9677 6.26676 11.3773 7.05917 11.5271 7.93148Z" fill="white"/>
<path d="M13.4491 2.59079C12.0307 1.17245 10.2362 0.276832 8.25516 0.000488281L8.08203 1.23571C9.79336 1.47543 11.3449 2.25119 12.5701 3.47309C13.7321 4.63507 14.4945 6.10335 14.7709 7.71813L15.9994 7.50838C15.6765 5.63723 14.7942 3.93922 13.4491 2.59079Z" fill="white"/>
</svg>
