<svg width="40" height="40" viewBox="0 0 40 40" fill="none" xmlns="http://www.w3.org/2000/svg">
<path d="M20.4166 3.33333H18.5833C18.0333 1.41667 16.2666 0 14.1666 0C12.0666 0 10.2999 1.41667 9.74994 3.33333H7.91661C7.23328 3.33333 6.66661 3.9 6.66661 4.58333V7.08333C6.66661 8.68333 7.98328 10 9.58328 10H18.7499C20.3499 10 21.6666 8.68333 21.6666 7.08333V4.58333C21.6666 3.9 21.0999 3.33333 20.4166 3.33333Z" fill="#FEDA99"/>
<path d="M23.75 4.99999H23.3333V7.08333C23.3333 9.61666 21.2833 11.6667 18.75 11.6667H9.58333C7.05 11.6667 5 9.61666 5 7.08333V4.99999H4.58333C2.05 4.99999 0 7.04999 0 9.58333V30.4167C0 32.95 2.05 35 4.58333 35H16.8833L17.25 32.95C17.4167 32.0167 17.85 31.1833 18.5167 30.5L19.85 29.1667H6.25C5.56667 29.1667 5 28.6 5 27.9167C5 27.2333 5.56667 26.6667 6.25 26.6667H22.0833C22.1667 26.6667 22.2333 26.6667 22.3167 26.7H22.3333L28.3333 20.7V9.58333C28.3333 7.04999 26.2833 4.99999 23.75 4.99999ZM22.0833 23.75H6.25C5.56667 23.75 5 23.1833 5 22.5C5 21.8167 5.56667 21.25 6.25 21.25H22.0833C22.7667 21.25 23.3333 21.8167 23.3333 22.5C23.3333 23.1833 22.7667 23.75 22.0833 23.75ZM22.0833 18.3333H6.25C5.56667 18.3333 5 17.7667 5 17.0833C5 16.4 5.56667 15.8333 6.25 15.8333H22.0833C22.7667 15.8333 23.3333 16.4 23.3333 17.0833C23.3333 17.7667 22.7667 18.3333 22.0833 18.3333Z" fill="#FEDA99"/>
<path d="M20.8784 40C20.55 40 20.23 39.87 19.995 39.6333C19.7067 39.345 19.5767 38.935 19.6484 38.5316L20.5317 33.5233C20.575 33.2716 20.6984 33.0383 20.8784 32.8566L33.2534 20.4833C34.7734 18.96 36.2667 19.3716 37.0834 20.1883L39.145 22.25C40.2834 23.3866 40.2834 25.2366 39.145 26.375L26.77 38.75C26.59 38.9316 26.3567 39.0533 26.1034 39.0966L21.095 39.98C21.0234 39.9933 20.95 40 20.8784 40ZM25.8867 37.8666H25.9034H25.8867Z" fill="#FEDA99"/>
</svg>
