<svg width="40" height="40" viewBox="0 0 40 40" fill="none" xmlns="http://www.w3.org/2000/svg">
<path d="M40 1.65985L38.3401 0L29.6557 8.68439L27.9959 7.02454L26.336 8.68439L31.3156 13.6639L32.9754 12.0041L31.3156 10.3442L40 1.65985Z" fill="#FEDA99"/>
<path d="M22.463 8.1311L19.1433 11.4508L22.463 14.7705L20.8032 16.4304L17.4835 13.1107L15.8236 14.7705L19.1433 18.0902L17.4835 19.7501L14.1638 16.4304L12.5039 18.0902L15.8236 21.4099L14.1638 23.0698L10.8441 19.7501L7.19266 23.4018L5.25601 21.4651C4.49338 20.7025 4.49338 19.4614 5.25601 18.6987C6.01865 17.9361 7.2598 17.9361 8.02243 18.6987L8.46494 19.1415L10.1248 17.4817L9.68228 17.0389C8.00443 15.361 5.27402 15.361 3.59616 17.0389C1.9183 18.717 1.9183 21.4471 3.59616 23.125L16.875 36.4038C17.7139 37.2427 18.8159 37.662 19.9179 37.662C21.0199 37.662 22.1222 37.2427 22.9611 36.4038C24.6389 34.7256 24.6389 31.9955 22.9611 30.3177L22.1866 29.5432L20.5267 31.203L21.3012 31.9775C22.0639 32.7402 22.0639 33.9813 21.3012 34.744C20.5386 35.5066 19.2975 35.5066 18.5348 34.744L16.5982 32.8073L31.8689 17.5369L22.463 8.1311Z" fill="#FEDA99"/>
<path d="M6.08612 28.9343L3.3197 31.7007L1.65985 30.0409L0 31.7007L8.29926 40L9.95911 38.3401L8.29926 36.6803L11.0657 33.9139L6.08612 28.9343Z" fill="#FEDA99"/>
</svg>
