<svg width="40" height="40" viewBox="0 0 40 40" fill="none" xmlns="http://www.w3.org/2000/svg">
<path fill-rule="evenodd" clip-rule="evenodd" d="M24.2431 2.85934C24.0929 2.98405 23.9771 3.19588 23.9771 3.45839C23.9771 5.7227 22.1416 7.5583 19.8771 7.5583C17.6129 7.5583 15.7772 5.7227 15.7772 3.45839C15.7772 3.19588 15.6614 2.98405 15.5112 2.85934C15.3711 2.74303 15.2087 2.70278 15.0261 2.75441C13.6202 3.15187 12.2848 3.71798 11.043 4.42981C10.9186 4.50113 10.8542 4.6075 10.8415 4.74723C10.8277 4.89882 10.8803 5.08204 11.0289 5.23069C12.63 6.8318 12.63 9.42772 11.0289 11.0288C9.42779 12.63 6.83187 12.63 5.23075 11.0288C5.08209 10.8802 4.89888 10.8276 4.74728 10.8414C4.60753 10.8542 4.50117 10.9185 4.42985 11.0429C3.71801 12.2848 3.15188 13.6202 2.75443 15.0261C2.70278 15.2087 2.74305 15.3711 2.85934 15.5111C2.98407 15.6614 3.1959 15.7772 3.45841 15.7772C5.72272 15.7772 7.55832 17.6129 7.55832 19.8771C7.55832 22.1414 5.72272 23.9771 3.45841 23.9771C3.19588 23.9771 2.98403 24.0929 2.85932 24.2431C2.74305 24.3831 2.70278 24.5456 2.75441 24.7281C3.19779 26.2965 3.85107 27.7772 4.6824 29.1379C4.75562 29.2579 4.86236 29.3199 5.00112 29.3308C5.1511 29.3425 5.33079 29.2892 5.47642 29.1436C7.12521 27.4947 9.79842 27.4947 11.4472 29.1436C13.1315 30.8277 13.0899 33.571 11.3553 35.2035C11.2845 35.2701 11.2659 35.3462 11.2709 35.4006C11.2732 35.4268 11.2806 35.4426 11.2855 35.4504C11.2888 35.4555 11.2968 35.4671 11.3235 35.4818C12.4852 36.1201 13.7255 36.6322 15.0261 36.9998C15.2088 37.0515 15.3711 37.0113 15.5112 36.8949C15.6614 36.7702 15.7772 36.5584 15.7772 36.2959C15.7772 35.5429 16.3877 34.9325 17.1407 34.9325C17.8937 34.9325 18.5042 35.5429 18.5042 36.2959C18.5042 38.4031 16.5748 40.2714 14.2843 39.6239C12.7824 39.1994 11.3507 38.6082 10.0104 37.8719C8.18448 36.8688 8.13021 34.494 9.48642 33.2176C10.1007 32.6397 10.1154 31.6682 9.51898 31.0717C8.93513 30.4879 7.9885 30.4879 7.40465 31.0717C6.0059 32.4704 3.51073 32.451 2.35531 30.5596C1.39653 28.99 0.642332 27.2811 0.130328 25.47C-0.517195 23.1796 1.35111 21.2502 3.45841 21.2502C4.21669 21.2502 4.8314 20.6354 4.8314 19.8771C4.8314 19.1188 4.21669 18.5042 3.45841 18.5042C1.35106 18.5042 -0.517175 16.5746 0.130342 14.2842C0.58932 12.6607 1.24291 11.1193 2.06404 9.6868C3.18735 7.72716 5.73746 7.67911 7.15897 9.10062C7.69516 9.6368 8.56448 9.6368 9.10067 9.10062C9.63686 8.56443 9.63686 7.6951 9.10067 7.15892C7.67918 5.73741 7.72723 3.1873 9.68687 2.064C11.1194 1.24287 12.6608 0.589284 14.2842 0.13033C16.5746 -0.517188 18.5042 1.35104 18.5042 3.45839C18.5042 4.21668 19.1188 4.83138 19.8771 4.83138C20.6354 4.83138 21.2502 4.21668 21.2502 3.45839C21.2502 1.35104 23.1796 -0.517188 25.47 0.13033C27.0935 0.589284 28.6349 1.24287 30.0674 2.064C32.027 3.1873 32.0752 5.73741 30.6536 7.15892C30.1174 7.6951 30.1174 8.56443 30.6536 9.10062C31.1899 9.6368 32.0592 9.6368 32.5953 9.10062C34.0168 7.67911 36.567 7.72716 37.6903 9.6868C38.5115 11.1193 39.165 12.6607 39.6239 14.2842C40.2714 16.5746 38.4033 18.5042 36.2959 18.5042C35.8431 18.5042 35.4415 18.7218 35.1892 19.0641C34.7425 19.6704 33.889 19.7995 33.2827 19.3528C32.6766 18.906 32.5473 18.0524 32.9942 17.4463C33.7383 16.4366 34.9403 15.7772 36.2959 15.7772C36.5584 15.7772 36.7702 15.6614 36.8949 15.5111C37.0113 15.3711 37.0515 15.2087 36.9998 15.0261C36.6024 13.6202 36.0363 12.2848 35.3244 11.0429C35.2532 10.9185 35.1468 10.8542 35.007 10.8414C34.8554 10.8276 34.6721 10.8802 34.5236 11.0288C32.9224 12.63 30.3265 12.63 28.7254 11.0288C27.1242 9.42772 27.1242 6.8318 28.7254 5.23067C28.874 5.08204 28.9267 4.89882 28.9129 4.74723C28.9 4.6075 28.8358 4.50113 28.7113 4.42981C27.4694 3.71798 26.1341 3.15187 24.7281 2.75441C24.5456 2.70278 24.3833 2.74303 24.2431 2.85934Z" fill="#FEDA99"/>
<path fill-rule="evenodd" clip-rule="evenodd" d="M13.6094 17.0415C14.7195 16.4559 15.1447 15.0814 14.5592 13.9713C14.2078 13.3053 14.463 12.4805 15.129 12.1292C15.795 11.7779 16.6198 12.033 16.9712 12.699C18.2594 15.1412 17.3239 18.1653 14.8817 19.4533C14.2157 19.8047 13.3909 19.5497 13.0396 18.8836C12.6883 18.2175 12.9434 17.3929 13.6094 17.0415Z" fill="#FEDA99"/>
<path fill-rule="evenodd" clip-rule="evenodd" d="M28.1833 20.9116C26.4262 20.9116 25.0019 22.336 25.0019 24.093V25.002H24.0929C22.3359 25.002 20.9115 26.4264 20.9115 28.1834V32.7283C20.9115 34.4853 22.3359 35.9097 24.0929 35.9097H25.0019V36.8187C25.0019 38.5757 26.4262 40.0001 28.1833 40.0001H32.7282C34.4852 40.0001 35.9096 38.5757 35.9096 36.8187V35.9097H36.8186C38.5756 35.9097 40 34.4853 40 32.7283V28.1834C40 26.4264 38.5756 25.002 36.8186 25.002H35.9096V24.093C35.9096 22.336 34.4852 20.9116 32.7282 20.9116H28.1833Z" fill="#FEDA99"/>
</svg>
