<svg width="22" height="15" viewBox="0 0 22 15" fill="none" xmlns="http://www.w3.org/2000/svg">
<path d="M21.0833 8.36553H0.916667C0.410665 8.36553 0 7.97784 0 7.50015C0 7.02246 0.410665 6.63477 0.916667 6.63477H21.0833C21.5893 6.63477 22 7.02246 22 7.50015C22 7.97784 21.5893 8.36553 21.0833 8.36553Z" fill="#26304B"/>
<path d="M21.0833 1.73077H0.916667C0.410665 1.73077 0 1.34308 0 0.865384C0 0.38769 0.410665 0 0.916667 0H21.0833C21.5893 0 22 0.38769 22 0.865384C22 1.34308 21.5893 1.73077 21.0833 1.73077Z" fill="#26304B"/>
<path d="M21.0833 15.0001H0.916667C0.410665 15.0001 0 14.6124 0 14.1347C0 13.657 0.410665 13.2693 0.916667 13.2693H21.0833C21.5893 13.2693 22 13.657 22 14.1347C22 14.6124 21.5893 15.0001 21.0833 15.0001Z" fill="#26304B"/>
</svg>
