<svg width="16" height="16" viewBox="0 0 16 16" fill="none" xmlns="http://www.w3.org/2000/svg">
<path d="M13.6597 2.34065C10.5382 -0.780218 5.46167 -0.780218 2.34014 2.34065C-0.780046 5.46153 -0.780046 10.5393 2.34014 13.6602C3.9009 15.2203 5.95056 16 8.00025 16C10.0499 16 12.0989 15.2203 13.6597 13.6602C16.7806 10.5394 16.7806 5.46153 13.6597 2.34065ZM11.3012 10.3586C11.562 10.6194 11.562 11.0409 11.3012 11.3017C11.1711 11.4318 11.0004 11.4971 10.8296 11.4971C10.6589 11.4971 10.4881 11.4318 10.358 11.3017L8.00022 8.9432L5.64307 11.301C5.51235 11.4311 5.34158 11.4965 5.17149 11.4965C5.00075 11.4965 4.82998 11.4311 4.69992 11.301C4.43914 11.0402 4.43914 10.618 4.69992 10.3579L7.05707 8.00008L4.69926 5.64227C4.43848 5.38149 4.43848 4.95928 4.69926 4.69915C4.95939 4.43837 5.3816 4.43837 5.64238 4.69915L8.00019 7.05696L10.358 4.69915C10.6188 4.43837 11.0403 4.43837 11.3011 4.69915C11.5619 4.95928 11.5619 5.38149 11.3011 5.64227L8.94331 8.00008L11.3012 10.3586Z" fill="#9E9E9E"/>
</svg>
