<svg width="18" height="16" viewBox="0 0 18 16" fill="none" xmlns="http://www.w3.org/2000/svg">
<path d="M16.1339 1.35673H15.0039V0.467836C15.0039 0.210526 14.7929 0 14.535 0C14.2771 0 14.0661 0.210526 14.0661 0.467836V1.35673H9.47121V0.467836C9.47121 0.210526 9.26021 0 9.00233 0C8.74446 0 8.53346 0.210526 8.53346 0.467836V1.35673H3.89163V0.467836C3.89163 0.210526 3.68064 0 3.42276 0C3.16488 0 2.95389 0.210526 2.95389 0.467836V1.35673H1.8708C0.83928 1.35673 0 2.22222 0 3.25146V14.1287C0 15.1626 0.834592 16 1.8708 16H16.1292C17.1654 16 18 15.1626 18 14.1333V3.25146C18.0047 2.22222 17.1654 1.35673 16.1339 1.35673ZM4.47772 12.6784H3.6572C3.39932 12.6784 3.18833 12.4678 3.18833 12.2105C3.18833 11.9532 3.39932 11.7427 3.6572 11.7427H4.48241C4.74029 11.7427 4.9466 11.9532 4.9466 12.2105C4.9466 12.4678 4.7356 12.6784 4.47772 12.6784ZM4.47772 9.49708H3.6572C3.39932 9.49708 3.18833 9.28655 3.18833 9.02924C3.18833 8.77193 3.39932 8.5614 3.6572 8.5614H4.48241C4.74029 8.5614 4.9466 8.77193 4.9466 9.02924C4.9466 9.28655 4.7356 9.49708 4.47772 9.49708ZM7.7692 12.6784H6.94868C6.6908 12.6784 6.47981 12.4678 6.47981 12.2105C6.47981 11.9532 6.6908 11.7427 6.94868 11.7427H7.7692C8.02708 11.7427 8.23807 11.9532 8.23807 12.2105C8.23807 12.4678 8.02708 12.6784 7.7692 12.6784ZM7.7692 9.49708H6.94868C6.6908 9.49708 6.47981 9.28655 6.47981 9.02924C6.47981 8.77193 6.6908 8.5614 6.94868 8.5614H7.7692C8.02708 8.5614 8.23807 8.77193 8.23807 9.02924C8.23807 9.28655 8.02708 9.49708 7.7692 9.49708ZM7.7692 6.26901H6.94868C6.6908 6.26901 6.47981 6.05848 6.47981 5.80117C6.47981 5.54386 6.6908 5.33333 6.94868 5.33333H7.7692C8.02708 5.33333 8.23807 5.54386 8.23807 5.80117C8.23807 6.05848 8.02708 6.26901 7.7692 6.26901ZM11.0325 12.6784H10.212C9.95414 12.6784 9.74315 12.4678 9.74315 12.2105C9.74315 11.9532 9.95414 11.7427 10.212 11.7427H11.0325C11.2951 11.7427 11.5014 11.9532 11.5014 12.2105C11.5014 12.4678 11.2904 12.6784 11.0325 12.6784ZM11.0325 9.49708H10.212C9.95414 9.49708 9.74315 9.28655 9.74315 9.02924C9.74315 8.77193 9.95414 8.5614 10.212 8.5614H11.0325C11.2951 8.5614 11.5014 8.77193 11.5014 9.02924C11.5014 9.28655 11.2904 9.49708 11.0325 9.49708ZM11.0325 6.26901H10.212C9.95414 6.26901 9.74315 6.05848 9.74315 5.80117C9.74315 5.54386 9.95414 5.33333 10.212 5.33333H11.0325C11.2951 5.33333 11.5014 5.54386 11.5014 5.80117C11.5014 6.05848 11.2904 6.26901 11.0325 6.26901ZM14.324 9.49708H13.5035C13.2456 9.49708 13.0346 9.28655 13.0346 9.02924C13.0346 8.77193 13.2456 8.5614 13.5035 8.5614H14.324C14.5819 8.5614 14.7929 8.77193 14.7929 9.02924C14.7929 9.28655 14.5819 9.49708 14.324 9.49708ZM14.324 6.26901H13.5035C13.2456 6.26901 13.0346 6.05848 13.0346 5.80117C13.0346 5.54386 13.2456 5.33333 13.5035 5.33333H14.324C14.5819 5.33333 14.7929 5.54386 14.7929 5.80117C14.7929 6.05848 14.5819 6.26901 14.324 6.26901Z" fill="white"/>
</svg>
