<svg width="30" height="30" viewBox="0 0 30 30" fill="none" xmlns="http://www.w3.org/2000/svg">
<path d="M14.86 5.38452C9.63535 5.38452 5.38477 9.63511 5.38477 14.8598C5.38477 20.0844 9.63535 24.335 14.86 24.335C20.0847 24.335 24.3352 20.0844 24.3352 14.8598C24.3352 9.63511 20.0847 5.38452 14.86 5.38452ZM13.194 19.1475L9.53024 15.4837L10.7781 14.2359L13.2192 16.677L18.9548 11.1708L20.1769 12.4439L13.194 19.1475Z" fill="#004364"/>
<path d="M30 15C30 13.7076 28.7196 12.6006 28.401 11.4087C28.0714 10.1754 28.6171 8.57841 27.9924 7.49859C27.3586 6.40323 25.6968 6.08118 24.8078 5.19223C23.9188 4.30329 23.5968 2.64141 22.5014 2.00765C21.4216 1.38288 19.8246 1.92859 18.5913 1.59894C17.3993 1.28041 16.2924 0 15 0C13.7076 0 12.6007 1.28041 11.4087 1.599C10.1754 1.92865 8.57841 1.38288 7.49865 2.00765C6.40329 2.64141 6.08124 4.30324 5.19229 5.19223C4.30335 6.08118 2.64147 6.40323 2.00771 7.49859C1.38294 8.57841 1.92871 10.1754 1.59906 11.4087C1.28041 12.6007 0 13.7076 0 15C0 16.2924 1.28041 17.3993 1.599 18.5913C1.92865 19.8246 1.38288 21.4216 2.00765 22.5014C2.64141 23.5967 4.30324 23.9188 5.19223 24.8077C6.08118 25.6966 6.40323 27.3585 7.49859 27.9923C8.57841 28.6171 10.1754 28.0714 11.4087 28.401C12.6007 28.7196 13.7076 30 15 30C16.2924 30 17.3993 28.7196 18.5913 28.401C19.8246 28.0714 21.4216 28.6171 22.5014 27.9924C23.5967 27.3586 23.9188 25.6968 24.8077 24.8078C25.6966 23.9188 27.3585 23.5968 27.9923 22.5014C28.6171 21.4216 28.0713 19.8246 28.4009 18.5913C28.7196 17.3993 30 16.2924 30 15ZM15 26.2399C8.80229 26.2399 3.76006 21.1977 3.76006 15C3.76006 8.80229 8.80229 3.76006 15 3.76006C21.1977 3.76006 26.2399 8.80229 26.2399 15C26.2399 21.1977 21.1977 26.2399 15 26.2399Z" fill="#004364"/>
</svg>
