<svg width="30" height="30" viewBox="0 0 30 30" fill="none" xmlns="http://www.w3.org/2000/svg">
<path d="M19.707 30H10.293C9.8076 30 9.41408 29.6065 9.41408 29.1211V20.5859H0.878906C0.393516 20.5859 0 20.1924 0 19.707V10.293C0 9.8076 0.393516 9.41408 0.878906 9.41408H9.41408V0.878906C9.41408 0.393516 9.8076 0 10.293 0H19.707C20.1924 0 20.5859 0.393516 20.5859 0.878906V9.41408H29.1211C29.6065 9.41408 30 9.8076 30 10.293V19.707C30 20.1924 29.6065 20.5859 29.1211 20.5859H20.5859V29.1211C20.5859 29.6065 20.1924 30 19.707 30Z" fill="white"/>
</svg>
