<svg width="28" height="20" viewBox="0 0 28 20" fill="none" xmlns="http://www.w3.org/2000/svg">
<path d="M27.7533 1.42896L19.2615 9.99995L27.7533 18.5709C27.9068 18.245 28 17.8847 28 17.4999V2.5C28 2.11517 27.9068 1.7549 27.7533 1.42896Z" fill="white"/>
<path d="M25.5391 0H2.46094C2.08212 0 1.72747 0.0946106 1.40662 0.250554L12.2601 11.2206C13.2197 12.1955 14.7803 12.1955 15.74 11.2206L26.5934 0.250554C26.2726 0.0946106 25.9179 0 25.5391 0Z" fill="white"/>
<path d="M0.246641 1.42896C0.093133 1.7549 0 2.11517 0 2.5V17.4999C0 17.8847 0.093133 18.2451 0.246641 18.5709L8.73848 9.99995L0.246641 1.42896Z" fill="white"/>
<path d="M18.1016 11.1785L16.8999 12.3992C15.3009 14.0236 12.6991 14.0236 11.1 12.3992L9.89845 11.1785L1.40662 19.7495C1.72747 19.9054 2.08212 20 2.46094 20H25.5391C25.9179 20 26.2726 19.9054 26.5934 19.7495L18.1016 11.1785Z" fill="white"/>
</svg>
