<svg width="21" height="30" viewBox="0 0 21 30" fill="none" xmlns="http://www.w3.org/2000/svg">
<path d="M10.5 0C4.71034 0 0 4.67798 0 10.4279C0 17.6548 10.5103 30 10.5103 30C10.5103 30 21 17.2994 21 10.4279C21 4.67798 16.2898 0 10.5 0ZM13.6681 13.4811C12.7945 14.3485 11.6473 14.7823 10.5 14.7823C9.35284 14.7823 8.2053 14.3485 7.33212 13.4811C5.58519 11.7464 5.58519 8.92365 7.33212 7.18872C8.17802 6.34827 9.30324 5.88538 10.5 5.88538C11.6968 5.88538 12.8218 6.34845 13.6681 7.18872C15.415 8.92365 15.415 11.7464 13.6681 13.4811Z" fill="white"/>
</svg>
