<svg width="40" height="40" viewBox="0 0 40 40" fill="none" xmlns="http://www.w3.org/2000/svg">
<path d="M3.84245 7.71954V2.7336C3.84245 2.51875 4.0231 2.34375 4.24569 2.34375H6.04815C6.71672 2.34375 7.25786 1.81875 7.25786 1.17188C7.25786 0.525 6.71672 0 6.04815 0H4.24569C2.6892 0 1.42303 1.22656 1.42303 2.7336V7.71954C1.81095 7.62735 2.2158 7.57813 2.63274 7.57813C3.04969 7.57813 3.45454 7.62735 3.84245 7.71954Z" fill="#FEDA99"/>
<path d="M17.032 2.34375H19.0594C19.2812 2.34375 19.4627 2.51875 19.4627 2.7336V7.71954C19.8506 7.62735 20.2554 7.57813 20.6724 7.57813C21.0893 7.57813 21.4942 7.62735 21.8821 7.71954V2.7336C21.8821 1.22656 20.6159 0 19.0594 0H17.032C16.3642 0 15.8223 0.525 15.8223 1.17188C15.8223 1.81875 16.3642 2.34375 17.032 2.34375Z" fill="#FEDA99"/>
<path d="M36.3102 30.6383V26.3102C36.3078 22.604 33.1932 19.5891 29.3649 19.5891C25.5349 19.5891 22.4187 22.6063 22.4187 26.3149V33.0297C22.4187 35.5813 20.2751 37.6563 17.6404 37.6563C15.0056 37.6563 12.862 35.5813 12.862 33.0297V25.3251C12.462 25.3555 12.058 25.3704 11.6523 25.3704C11.2467 25.3704 10.8426 25.3555 10.4426 25.3251V33.0297C10.4426 36.8735 13.6717 40.0001 17.6404 40.0001C21.609 40.0001 24.8382 36.8735 24.8382 33.0297V26.3149C24.8382 23.8985 26.8689 21.9329 29.3649 21.9329C31.8609 21.9329 33.8908 23.8985 33.8908 26.3149V30.6384C31.7726 31.1615 30.2015 33.0242 30.2015 35.2359C30.2015 37.8519 32.3993 39.9801 35.1008 39.9801C37.8024 39.9801 40.0002 37.8519 40.0002 35.2359C40.0002 33.024 38.4287 31.1611 36.3102 30.6383Z" fill="#FEDA99"/>
<path d="M23.3053 12.9615V12.4723C23.3053 11.0638 22.1265 9.92188 20.6725 9.92188H20.6725C19.2185 9.92188 18.0397 11.0638 18.0397 12.4723V12.9615C18.0397 15.7002 15.1745 17.9284 11.6526 17.9284C8.13077 17.9284 5.26554 15.7002 5.26554 12.9615V12.4723C5.26546 11.0638 4.08672 9.92188 2.63273 9.92188C1.17874 9.92188 0 11.0638 0 12.4723V12.9615C0 18.6594 5.35554 23.0266 11.6526 23.0266C17.9463 23.0266 23.3053 18.6611 23.3053 12.9615Z" fill="#FEDA99"/>
</svg>
