<svg width="40" height="40" viewBox="0 0 40 40" fill="none" xmlns="http://www.w3.org/2000/svg">
<path d="M10.3676 25.1675C10.2057 25.3466 10.1468 25.5932 10.2093 25.8246C10.2722 26.056 10.4488 26.241 10.6798 26.3178L16.0493 28.0981C16.0731 28.1048 16.095 28.1123 16.1182 28.1211L18.1848 28.806C18.4607 28.8971 18.765 28.8184 18.9593 28.6052L19.6255 27.8909L19.6191 15.1887L10.3676 25.1675Z" fill="#FEDA99"/>
<path d="M28.3502 5.76837V14.2862C28.3502 14.6806 28.0242 15.0005 27.6225 15.0005C27.2204 15.0005 26.8943 14.6806 26.8943 14.2862V7.3393L24.7099 9.69706V12.8573C24.7099 13.2517 24.3841 13.5717 23.982 13.5717C23.5799 13.5717 23.2538 13.2517 23.2538 12.8573V11.2666L21.0772 13.6152L21.0836 26.3205L23.2678 23.9625L23.2614 15.7151C23.257 15.5245 23.3323 15.3403 23.4697 15.2055C23.6072 15.0705 23.7947 14.9966 23.9892 15.0005C24.3915 15.0005 24.7173 15.3205 24.7173 15.7151L24.7231 22.4004L26.8943 20.0605V17.1442C26.8943 16.7492 27.2204 16.4292 27.6225 16.4292C28.0242 16.4292 28.3502 16.7492 28.3502 17.1442V18.4921L30.5492 16.1238L30.5346 3.40924L28.3502 5.76837Z" fill="#FEDA99"/>
<path d="M36.3589 4.28363C36.3589 4.67822 36.0331 4.99797 35.631 4.99797C35.2289 4.99797 34.9028 4.67822 34.9028 4.28363C34.9028 3.88904 35.2289 3.56909 35.631 3.56909C36.0331 3.56909 36.3589 3.88904 36.3589 4.28363Z" fill="#FEDA99"/>
<path d="M14.5903 29.1221L11.5543 28.1142L0 39.9837C1.62119 40.0684 3.24237 39.8223 4.76153 39.2608C7.42072 38.2988 9.78501 36.6865 11.6314 34.5768L13.0418 32.9971C12.7531 32.7422 12.58 32.3852 12.5596 32.0047C12.539 31.6283 12.6744 31.2592 12.9345 30.9818L14.5903 29.1221Z" fill="#FEDA99"/>
<path d="M39.9926 4.04936C39.8949 2.31895 38.7447 0.816203 37.078 0.241947C35.4117 -0.331721 33.5569 0.135168 32.3778 1.42592L31.9907 1.8403L32.0036 14.5578L38.8873 7.14164C39.6617 6.29701 40.0596 5.18376 39.9926 4.04936ZM35.6307 6.4271C34.4246 6.4271 33.4467 5.46766 33.4467 4.28368C33.4467 3.1001 34.4246 2.14046 35.6307 2.14046C36.8372 2.14046 37.8151 3.1001 37.8151 4.28368C37.8151 5.46766 36.8372 6.4271 35.6307 6.4271Z" fill="#FEDA99"/>
</svg>
