<svg width="15" height="20" viewBox="0 0 15 20" fill="none" xmlns="http://www.w3.org/2000/svg">
<path d="M7.50007 4.06152C5.62305 4.06152 4.09595 5.57581 4.09595 7.43693C4.09595 9.2982 5.62305 10.8125 7.50007 10.8125C9.37709 10.8125 10.904 9.2982 10.904 7.43693C10.904 5.57581 9.37694 4.06152 7.50007 4.06152Z" fill="#00A993"/>
<path d="M7.5307 0.000152588L7.49915 0C3.36411 0 0 3.33618 0 7.43698C0 9.68521 1.15886 11.4388 2.45007 13.185L7.48915 20C7.48915 20 12.252 13.588 12.5499 13.1851C13.8411 11.4389 15 9.68536 15 7.43713C15 3.34641 11.6524 0.0163269 7.5307 0.000152588ZM7.50008 11.9841C4.97153 11.9841 2.91447 9.94431 2.91447 7.43698C2.91447 4.92981 4.97153 2.89001 7.50008 2.89001C10.0286 2.89001 12.0857 4.92981 12.0857 7.43698C12.0857 9.94431 10.0285 11.9841 7.50008 11.9841Z" fill="#00A993"/>
</svg>
