<svg width="24" height="24" viewBox="0 0 24 24" fill="none" xmlns="http://www.w3.org/2000/svg">
<path d="M0 1.8927V22.0584L14.7441 24V21.9281C14.7772 21.9302 14.8098 21.9328 14.8433 21.9328H22.3976C23.2811 21.9328 24 21.241 24 20.3915V3.54734C24 2.69767 23.2811 2.00604 22.3976 2.00604H14.8433C14.8098 2.00604 14.7772 2.00915 14.7441 2.01108V0L0 1.8927ZM14.7441 14.5463H18.0873V15.9774H14.7441V14.5463ZM14.7441 12.6748V11.2435H18.0873V12.6748H14.7441ZM3.80885 14.3693L3.39751 13.495C3.23087 13.1611 3.1247 12.915 2.99924 12.6408L2.98574 12.6405C2.89372 12.91 2.78218 13.1499 2.64557 13.4712L2.28342 14.2973L1.18938 14.2459L2.41867 11.9569L1.2324 9.71268L2.33461 9.66913L2.71698 10.5052C2.84764 10.7861 2.94635 11.0142 3.05184 11.2769H3.06483C3.17112 10.9759 3.2574 10.7648 3.37076 10.4896L3.75463 9.61306L4.9599 9.56501L3.64634 11.9334L5.03111 14.4268L3.80885 14.3693ZM8.84344 14.6063L5.61828 14.4547V9.53888L6.74953 9.4939V13.5555L8.84323 13.6196V14.6063H8.84344ZM10.981 14.7867C10.3198 14.7544 9.68043 14.5675 9.36589 14.3897L9.62196 13.417C9.96465 13.5907 10.4987 13.7731 11.0594 13.7912C11.6749 13.8109 12.005 13.5864 12.005 13.2293C12.005 12.8883 11.7193 12.6893 11.0072 12.4477C10.0489 12.1308 9.43948 11.6447 9.43948 10.8817C9.43948 9.98667 10.243 9.26837 11.6218 9.2116C12.3024 9.18366 12.8139 9.29417 13.1841 9.42845L12.8691 10.4519C12.621 10.3506 12.1849 10.2058 11.595 10.2203C11.0161 10.2348 10.7391 10.4806 10.7391 10.7586C10.7391 11.1006 11.0683 11.249 11.8351 11.5092C12.9154 11.8668 13.4367 12.3819 13.4367 13.1702C13.4368 14.1087 12.6307 14.8667 10.981 14.7867ZM14.8433 2.88679H22.3977C22.7764 2.88679 23.0844 3.18319 23.0844 3.54734V20.3915C23.0844 20.7557 22.7764 21.052 22.3977 21.052H14.8433C14.8094 21.052 14.7768 21.0473 14.7442 21.0425V16.1977H22.1125V9.37188H14.7441V2.89679C14.7767 2.89204 14.8094 2.88679 14.8433 2.88679ZM21.8836 11.2434V12.6747H18.3164V11.2434H21.8836ZM18.3164 11.0232V9.59204H21.8836V11.0232H18.3164ZM21.8836 14.5463V15.9774H18.3164V14.5463H21.8836Z" fill="white"/>
</svg>
