<svg width="20" height="30" viewBox="0 0 20 30" fill="none" xmlns="http://www.w3.org/2000/svg">
<path d="M17.6132 3.53245C15.7534 1.30506 12.9807 0.0175196 10.0057 5.85939e-05L10.0003 0L9.99488 5.85939e-05C7.01965 0.017168 4.2465 1.30454 2.3865 3.53204C0.254629 6.08504 -0.482534 9.57501 0.310861 13.359L0.458342 14.0624H3.79405C3.17689 13.0275 2.82316 11.8265 2.82316 10.5467C2.82316 9.26692 3.17689 8.06592 3.79405 7.0311H2.40404C2.73288 6.15506 3.19635 5.35115 3.79031 4.63988C5.30689 2.82364 7.56997 1.7734 10.0001 1.75788C12.43 1.7737 14.6929 2.82405 16.2093 4.64029C16.8032 5.35156 17.2665 6.15517 17.5952 7.03115H16.317C16.9342 8.06598 17.2879 9.26698 17.2879 10.5468C17.2879 11.8266 16.9342 13.0276 16.317 14.0624H19.541L19.6885 13.3591C20.4817 9.57524 19.7447 6.08545 17.6132 3.53245Z" fill="white"/>
<path d="M0.110596 21.0938V30H19.9997V21.0938H0.110596ZM10.9592 26.4258H9.15111V24.668H10.9592V26.4258Z" fill="white"/>
<path d="M10.0554 15.8203C13.0511 15.8203 15.4797 13.4593 15.4797 10.5469C15.4797 7.63443 13.0511 5.27344 10.0554 5.27344C7.05964 5.27344 4.6311 7.63443 4.6311 10.5469C4.6311 13.4593 7.05964 15.8203 10.0554 15.8203Z" fill="white"/>
<path d="M16.8222 19.3359C15.3439 17.1857 12.8315 15.8203 10.0555 15.8203C7.27947 15.8203 4.76706 17.1857 3.28882 19.3359H16.8222Z" fill="white"/>
</svg>
