<svg width="23" height="24" viewBox="0 0 23 24" fill="none" xmlns="http://www.w3.org/2000/svg">
<path d="M14.1299 21.9278C14.1612 21.9295 14.1929 21.9324 14.225 21.9324H21.4644C22.311 21.9324 23 21.2408 23 20.391V3.54716C23 2.69749 22.311 2.00587 21.4644 2.00587H14.225C14.1931 2.00587 14.1612 2.00901 14.1299 2.01048V0L0 1.89264V22.0583L14.1299 24V21.9278ZM21.4644 21.052H14.225C14.1927 21.052 14.1612 21.0469 14.1299 21.0422V14.4334C15.6383 14.1717 17.7331 13.9737 19.5449 14.4009L19.7593 14.8183C20.6241 16.4596 21.5479 16.4488 21.9048 16.368C21.9867 16.3495 22.0308 16.3288 22.0308 16.3288L22.0788 16.3032C22.095 16.2929 22.1077 16.2798 22.1225 16.2686V20.3914C22.1225 20.7555 21.8273 21.052 21.4644 21.052ZM14.7439 13.6501C15.8776 12.2623 16.7937 10.9668 17.3837 10.0894L17.3858 10.0943L17.3922 10.0844C17.8554 11.0644 18.6189 12.5803 19.1447 13.615L19.143 13.6146L19.161 13.6493C17.666 13.3929 16.0608 13.4865 14.7405 13.6697L14.7598 13.6471L14.7439 13.6501ZM17.4107 7.17464C17.4561 7.09423 17.5225 7.07295 17.6416 7.07821C17.6438 7.07841 17.8803 7.09399 17.9685 7.2566C18.0221 7.35344 18.0997 7.66059 17.6823 8.40962H17.6819C17.6819 8.40962 17.6279 8.49974 17.5264 8.66239C17.2924 7.8378 17.3078 7.35629 17.4107 7.17464ZM20.4296 14.6712C20.8585 14.8368 21.2437 15.0409 21.5809 15.2821C21.6777 15.4201 21.7673 15.6188 21.751 15.7126C21.7502 15.7171 21.7493 15.7216 21.7468 15.7261C21.6083 15.7517 21.0577 15.7689 20.4296 14.6712ZM14.225 2.88677H21.4644C21.8273 2.88677 22.1225 3.1832 22.1225 3.54732V14.9077C22.1019 14.8782 22.0842 14.854 22.0736 14.8409L22.0458 14.8047L22.0094 14.7776C21.4476 14.366 20.7707 14.0489 19.9951 13.8345C19.4422 12.7508 18.2971 10.4921 17.8158 9.43429C18.0945 9.00338 18.2443 8.75221 18.2511 8.74071C18.6854 7.96371 18.7803 7.35715 18.5401 6.92926C18.3225 6.54198 17.8889 6.42565 17.6673 6.41827C17.3092 6.40192 17.0037 6.55568 16.8378 6.84852C16.585 7.29566 16.6373 8.0789 16.9946 9.17496C17.0105 9.22561 17.036 9.29052 17.0696 9.37223C16.4972 10.2412 15.4586 11.7443 14.1297 13.3587V2.89647C14.1612 2.89182 14.1925 2.88677 14.225 2.88677ZM3.61923 11.8637C3.28513 12.1963 2.79401 12.3415 2.22714 12.3363C2.10246 12.335 1.98976 12.3273 1.90271 12.3131V13.9318L0.974753 13.906V9.48661C1.2614 9.42671 1.66704 9.37696 2.24599 9.36285C2.83756 9.34834 3.26603 9.4608 3.55496 9.70035C3.83356 9.92783 4.02153 10.3103 4.02153 10.764C4.02153 11.2183 3.87854 11.6034 3.61923 11.8637ZM7.97575 13.5256C7.47457 13.936 6.72122 14.1149 5.81715 14.0896C5.28456 14.0743 4.91093 14.0294 4.6591 13.9876V9.40114C5.0309 9.33007 5.51986 9.28338 6.04177 9.27062C6.92235 9.24901 7.50243 9.39943 7.96214 9.74108C8.4613 10.1072 8.77805 10.7033 8.77805 11.5655C8.77805 12.5001 8.44001 13.139 7.97575 13.5256ZM9.50731 9.223L12.629 9.14818V10.0903L10.6434 10.1192V11.2565L12.497 11.2519V12.185L10.6434 12.1721V14.1739L9.50699 14.1425V9.22304H9.50731V9.223Z" fill="white"/>
</svg>
