<svg width="20" height="20" viewBox="0 0 20 20" fill="none" xmlns="http://www.w3.org/2000/svg">
<path d="M15.2055 13.2309C14.5521 12.5858 13.7363 12.5858 13.0871 13.2309C12.5918 13.722 12.0965 14.2131 11.6096 14.7126C11.4764 14.8499 11.364 14.879 11.2017 14.7875C10.8812 14.6127 10.54 14.4712 10.232 14.2797C8.79613 13.3766 7.59334 12.2154 6.52789 10.9086C5.99933 10.2593 5.52903 9.56429 5.20024 8.78185C5.13365 8.62369 5.14613 8.51965 5.27515 8.39063C5.77042 7.91201 6.2532 7.4209 6.74015 6.92979C7.41854 6.24724 7.41854 5.44815 6.73598 4.76144C6.34893 4.37022 5.96187 3.98732 5.57481 3.5961C5.17527 3.19656 4.77989 2.79285 4.37618 2.39747C3.72276 1.7607 2.90702 1.7607 2.25777 2.40163C1.75834 2.89274 1.27972 3.39633 0.771963 3.87911C0.301666 4.32444 0.0644373 4.86965 0.0144944 5.50642C-0.064582 6.54274 0.189295 7.52079 0.547219 8.47386C1.27972 10.4466 2.39511 12.1988 3.74773 13.8053C5.57481 15.9778 7.75565 17.6967 10.3069 18.9369C11.4556 19.4946 12.6459 19.9233 13.9403 19.994C14.8309 20.044 15.605 19.8192 16.2251 19.1242C16.6497 18.6497 17.1283 18.2169 17.5778 17.7633C18.2437 17.089 18.2478 16.2733 17.5861 15.6074C16.7953 14.8125 16.0004 14.0217 15.2055 13.2309Z" fill="#00A993"/>
<path d="M14.4106 9.91385L15.9463 9.65164C15.7049 8.24076 15.039 6.96305 14.0277 5.94754C12.9581 4.87793 11.6054 4.2037 10.1155 3.99561L9.89905 5.53968C11.0519 5.70199 12.1007 6.22223 12.9289 7.05045C13.7114 7.83289 14.2233 8.82342 14.4106 9.91385Z" fill="#00A993"/>
<path d="M16.812 3.23797C15.0391 1.46499 12.7958 0.345439 10.3194 0L10.103 1.54407C12.2423 1.84373 14.1817 2.81345 15.7133 4.34088C17.1658 5.79338 18.1189 7.62879 18.4643 9.64732L20.0001 9.38511C19.5963 7.04612 18.4934 4.92354 16.812 3.23797Z" fill="#00A993"/>
</svg>
