<svg width="17" height="12" viewBox="0 0 17 12" fill="none" xmlns="http://www.w3.org/2000/svg">
<path d="M16.8502 0.857422L11.6945 6.00001L16.8502 11.1426C16.9434 10.947 17 10.7308 17 10.5V1.50005C17 1.26915 16.9434 1.05299 16.8502 0.857422Z" fill="#FEDA99"/>
<path d="M15.5059 0H1.49413C1.26413 0 1.04881 0.0567663 0.854004 0.150332L7.44361 6.73238C8.02626 7.31731 8.97374 7.31731 9.55639 6.73238L16.146 0.150332C15.9512 0.0567663 15.7359 0 15.5059 0Z" fill="#FEDA99"/>
<path d="M0.149746 0.857422C0.0565451 1.05299 0 1.26915 0 1.50005V10.5C0 10.7309 0.0565451 10.9471 0.149746 11.1426L5.30551 6.00001L0.149746 0.857422Z" fill="#FEDA99"/>
<path d="M10.9902 6.70703L10.2607 7.43946C9.28984 8.41408 7.71013 8.41408 6.7393 7.43946L6.00976 6.70703L0.854004 11.8496C1.04881 11.9432 1.26413 12 1.49413 12H15.5059C15.7359 12 15.9512 11.9432 16.146 11.8496L10.9902 6.70703Z" fill="#FEDA99"/>
</svg>
