<svg width="35" height="35" viewBox="0 0 35 35" fill="none" xmlns="http://www.w3.org/2000/svg">
<path d="M17.5 35C27.165 35 35 27.165 35 17.5C35 7.83502 27.165 0 17.5 0C7.83502 0 0 7.83502 0 17.5C0 27.165 7.83502 35 17.5 35Z" fill="#75B73B"/>
<path d="M17.0105 7.41354C11.6765 7.66729 7.46723 12.1096 7.48329 17.4494C7.48821 19.0759 7.88087 20.611 8.57362 21.9677L7.51016 27.1298C7.45267 27.4091 7.7045 27.6536 7.9819 27.5878L13.0402 26.3895C14.3397 27.0369 15.7994 27.4107 17.3442 27.4343C22.7961 27.5176 27.3418 23.1888 27.512 17.739C27.6939 11.8971 22.8726 7.13429 17.0105 7.41354ZM23.0461 22.9645C21.5648 24.4458 19.5951 25.2617 17.5001 25.2617C16.2735 25.2617 15.0989 24.9864 14.0093 24.4437L13.305 24.0928L10.2036 24.8274L10.8563 21.6585L10.5094 20.9788C9.94368 19.871 9.65685 18.6732 9.65685 17.4184C9.65685 15.3233 10.4727 13.3538 11.954 11.8724C13.4221 10.4042 15.4238 9.57527 17.5003 9.57527C19.5951 9.57527 21.5648 10.3911 23.0461 11.8724C24.5273 13.3537 25.3432 15.3234 25.3432 17.4182C25.3433 19.4947 24.5143 21.4964 23.0461 22.9645Z" fill="white"/>
<path d="M22.3614 19.5903L20.4211 19.0332C20.1662 18.9602 19.8914 19.0325 19.7055 19.2219L19.231 19.7052C19.0309 19.9092 18.7274 19.9746 18.4626 19.8675C17.5447 19.496 15.6139 17.7792 15.1211 16.9208C14.9787 16.6731 15.0022 16.3635 15.177 16.1373L15.5911 15.6014C15.7534 15.3915 15.7876 15.1094 15.6803 14.8667L14.864 13.0205C14.6685 12.5783 14.1035 12.4495 13.7342 12.7618C13.1928 13.2199 12.5503 13.9157 12.4723 14.6868C12.3345 16.0463 12.9176 17.7598 15.122 19.8175C17.6689 22.1949 19.7085 22.5088 21.0367 22.1871C21.7899 22.0048 22.3919 21.2735 22.7716 20.6746C23.0307 20.266 22.8259 19.7238 22.3614 19.5903Z" fill="white"/>
</svg>
