<svg width="35" height="35" viewBox="0 0 35 35" fill="none" xmlns="http://www.w3.org/2000/svg">
<path d="M17.5 35C27.165 35 35 27.165 35 17.5C35 7.83502 27.165 0 17.5 0C7.83502 0 0 7.83502 0 17.5C0 27.165 7.83502 35 17.5 35Z" fill="#41B4E6"/>
<path d="M15.8007 20.0497L23.7093 26.0208L27.7015 8.97949L7.29892 17.0049L13.5072 19.0613L24.8374 11.4612L15.8007 20.0497Z" fill="white"/>
<path d="M13.5072 19.0614L15.2075 25.1799L15.8007 20.0499L24.8374 11.4614L13.5072 19.0614Z" fill="#D2D2D7"/>
<path d="M18.3704 21.9904L15.2068 25.1798L15.8 20.0498L18.3704 21.9904Z" fill="#B9B9BE"/>
</svg>
