<svg width="44" height="40" viewBox="0 0 44 40" fill="none" xmlns="http://www.w3.org/2000/svg">
<path d="M28.875 13.5811C31.8692 13.5811 34.2965 10.5408 34.2965 6.79053C34.2965 3.04022 31.8692 0 28.875 0C25.8807 0 23.4534 3.04022 23.4534 6.79053C23.4534 10.5408 25.8807 13.5811 28.875 13.5811Z" fill="#FEDA99"/>
<path d="M15.1248 13.5811C18.1191 13.5811 20.5464 10.5408 20.5464 6.79053C20.5464 3.04022 18.1191 0 15.1248 0C12.1306 0 9.70331 3.04022 9.70331 6.79053C9.70331 10.5408 12.1306 13.5811 15.1248 13.5811Z" fill="#FEDA99"/>
<path d="M4.72656 20.4292C7.33697 20.4292 9.45312 18.317 9.45312 15.7114C9.45312 13.1059 7.33697 10.9937 4.72656 10.9937C2.11615 10.9937 0 13.1059 0 15.7114C0 18.317 2.11615 20.4292 4.72656 20.4292Z" fill="#FEDA99"/>
<path d="M39.2734 20.4292C41.8838 20.4292 43.9999 18.317 43.9999 15.7114C43.9999 13.1059 41.8838 10.9937 39.2734 10.9937C36.663 10.9937 34.5468 13.1059 34.5468 15.7114C34.5468 18.317 36.663 20.4292 39.2734 20.4292Z" fill="#FEDA99"/>
<path d="M21.9999 17.4348C17.1102 17.4348 13.4434 18.971 10.7897 22.1312C8.43916 24.9305 7.16255 28.6155 5.92815 32.1203C4.41101 36.4154 8.1431 40.7532 12.6495 39.8892C16.3467 39.1794 21.4246 37.9837 28.6822 39.377C31.4791 39.9139 31.739 39.9992 32.4994 39.9992C36.472 39.9991 39.4566 36.0413 38.0715 32.1202C35.6021 25.1083 32.9698 17.4348 21.9999 17.4348ZM25.4374 30.0364H23.289V32.1808C23.289 32.8914 22.7118 33.4675 21.9999 33.4675C21.288 33.4675 20.7109 32.8914 20.7109 32.1808V30.0364H18.5624C17.8505 30.0364 17.2734 29.4603 17.2734 28.7497C17.2734 28.0391 17.8505 27.463 18.5624 27.463H20.7109V25.3186C20.7109 24.608 21.288 24.0319 21.9999 24.0319C22.7118 24.0319 23.289 24.608 23.289 25.3186V27.463H25.4374C26.1493 27.463 26.7265 28.0391 26.7265 28.7497C26.7265 29.4603 26.1493 30.0364 25.4374 30.0364Z" fill="#FEDA99"/>
</svg>
