<svg width="46" height="40" viewBox="0 0 46 40" fill="none" xmlns="http://www.w3.org/2000/svg">
<path d="M26.0968 23.5608C26.0968 19.684 22.9255 16.5413 19.0137 16.5413C16.5102 16.5413 14.3101 17.8285 13.0503 19.7715C11.7906 17.8285 9.59048 16.5413 7.08689 16.5413C3.175 16.5413 0.00378013 19.684 0.00378013 23.5608C0.00378013 23.5608 -0.58838 31.2263 13.0503 40C26.6889 31.2263 26.0968 23.5608 26.0968 23.5608Z" fill="#FEDA99"/>
<path d="M45.9946 9.82223C45.9946 4.39759 41.5572 0 36.0835 0C32.5804 0 29.5019 1.80115 27.7393 4.51993C25.9766 1.80115 22.8981 0 19.395 0C13.9213 0 9.4839 4.39759 9.4839 9.82223C9.4839 9.82223 9.3494 11.5676 10.4409 14.4556C11.379 14.7938 12.2591 15.2713 13.0502 15.8755C14.7332 14.5899 16.8157 13.8702 19.0135 13.8702C21.6255 13.8702 24.081 14.8782 25.9279 16.7085C27.7573 18.5215 28.7726 20.9263 28.7917 23.4874C28.82 24.1631 28.7645 26.461 27.087 29.7077C26.7535 30.3531 26.3743 30.998 25.9522 31.6406C26.5277 32.0336 27.1229 32.4285 27.7394 32.8249C46.8232 20.5482 45.9946 9.82223 45.9946 9.82223Z" fill="#FEDA99"/>
</svg>
