<svg width="20" height="16" viewBox="0 0 20 16" fill="none" xmlns="http://www.w3.org/2000/svg">
<path d="M13.3744 8.55832C12.4745 7.27321 10.9417 6.50586 9.27425 6.50586C7.60678 6.50586 6.07404 7.27321 5.17423 8.55832L3.00566 11.655C2.64586 12.1687 2.47984 12.7623 2.52547 13.3711C2.57109 13.9801 2.82423 14.5471 3.25743 15.0114C3.69093 15.4752 4.26374 15.7923 4.91392 15.9283C5.56409 16.0644 6.23059 16.0063 6.84125 15.7606L6.88214 15.744C8.4187 15.1381 10.1745 15.1437 11.7071 15.7606C12.1025 15.9197 12.5213 16.0001 12.944 16.0001C13.1738 16.0001 13.4049 15.9762 13.634 15.9285C14.2842 15.7926 14.857 15.4755 15.2906 15.0115C15.724 14.5477 15.9773 13.9805 16.023 13.3714C16.0688 12.7623 15.9028 12.1688 15.543 11.6548L13.3744 8.55832Z" fill="white"/>
<path d="M3.58964 8.55422C4.23478 8.32739 4.72489 7.85153 4.96964 7.21421C5.20264 6.60776 5.18356 5.9231 4.91577 5.2862C4.64783 4.64972 4.16047 4.13014 3.5434 3.82301C2.89521 3.50051 2.18308 3.44799 1.53901 3.67523C0.243241 4.13126 -0.351393 5.59697 0.213639 6.94325C0.664992 8.01481 1.71769 8.69123 2.78199 8.69123C3.05375 8.69123 3.32627 8.6471 3.58964 8.55422Z" fill="white"/>
<path d="M7.79732 6.12806C9.41719 6.12806 10.7351 4.7537 10.7351 3.06438C10.7351 1.37464 9.41719 0 7.79732 0C6.17761 0 4.85986 1.37464 4.85986 3.06438C4.85986 4.7537 6.17761 6.12806 7.79732 6.12806Z" fill="white"/>
<path d="M12.8707 6.88071H12.8708C13.12 6.95641 13.3742 6.99258 13.6273 6.99258C14.8087 6.99258 15.9599 6.20554 16.3992 4.99599C16.6522 4.29973 16.6356 3.56352 16.3524 2.92313C16.0561 2.25271 15.5069 1.7661 14.8059 1.55282C14.1048 1.33954 13.3466 1.42852 12.6708 1.80311C12.0252 2.16095 11.5305 2.74156 11.2778 3.43782C10.7445 4.9066 11.4591 6.45108 12.8707 6.88071Z" fill="white"/>
<path d="M19.0577 6.52324L19.0572 6.52282C17.9401 5.76748 16.2695 6.09487 15.3327 7.25302C14.3969 8.41173 14.5432 9.96948 15.6587 10.7254C16.0655 11.0012 16.5461 11.1331 17.038 11.1331C17.8954 11.1331 18.7875 10.7325 19.3838 9.99588C20.3194 8.83717 20.1733 7.27942 19.0577 6.52324Z" fill="white"/>
</svg>
