<svg width="25" height="20" viewBox="0 0 25 20" fill="none" xmlns="http://www.w3.org/2000/svg">
<path d="M16.718 10.6979C15.5931 9.09151 13.6772 8.13232 11.5928 8.13232C9.50847 8.13232 7.59255 9.09151 6.46779 10.6979L3.75707 14.5687C3.30732 15.2108 3.0998 15.9528 3.15683 16.7139C3.21386 17.4751 3.53029 18.1839 4.07178 18.7642C4.61366 19.3441 5.32968 19.7404 6.1424 19.9104C6.95511 20.0805 7.78824 20.0078 8.55156 19.7007L8.60268 19.68C10.5234 18.9226 12.7182 18.9296 14.6339 19.7007C15.1281 19.8996 15.6516 20.0002 16.18 20.0002C16.4672 20.0002 16.7562 19.9703 17.0425 19.9106C17.8552 19.7407 18.5712 19.3444 19.1133 18.7644C19.655 18.1846 19.9716 17.4756 20.0288 16.7142C20.086 15.9528 19.8785 15.211 19.4288 14.5685L16.718 10.6979Z" fill="#FEDA99"/>
<path d="M4.48704 10.6928C5.29347 10.4092 5.90611 9.81442 6.21205 9.01777C6.5033 8.2597 6.47945 7.40387 6.14472 6.60775C5.80979 5.81215 5.20058 5.16268 4.42925 4.77876C3.61901 4.37563 2.72886 4.30999 1.92377 4.59404C0.304051 5.16408 -0.439241 6.99621 0.267048 8.67907C0.83124 10.0185 2.14712 10.864 3.47749 10.864C3.81719 10.864 4.15784 10.8089 4.48704 10.6928Z" fill="#FEDA99"/>
<path d="M9.74665 7.66007C11.7715 7.66007 13.4189 5.94212 13.4189 3.83047C13.4189 1.7183 11.7715 0 9.74665 0C7.72201 0 6.07483 1.7183 6.07483 3.83047C6.07483 5.94212 7.72201 7.66007 9.74665 7.66007Z" fill="#FEDA99"/>
<path d="M16.0886 8.60094H16.0888C16.4003 8.69557 16.7181 8.74079 17.0345 8.74079C18.5112 8.74079 19.9502 7.75698 20.4994 6.24505C20.8156 5.37472 20.7948 4.45447 20.4408 3.65398C20.0704 2.81595 19.384 2.20769 18.5077 1.94109C17.6313 1.67449 16.6835 1.7857 15.8388 2.25395C15.0318 2.70125 14.4134 3.42701 14.0976 4.29734C13.4309 6.13331 14.3242 8.06391 16.0886 8.60094Z" fill="#FEDA99"/>
<path d="M23.8221 8.15405L23.8215 8.15353C22.4252 7.20935 20.3368 7.61859 19.1659 9.06628C17.9961 10.5147 18.1791 12.4619 19.5733 13.4067C20.0818 13.7515 20.6826 13.9163 21.2976 13.9163C22.3693 13.9163 23.4843 13.4156 24.2297 12.4948C25.3993 11.0465 25.2166 9.09927 23.8221 8.15405Z" fill="#FEDA99"/>
</svg>
