<svg width="170" height="58" viewBox="0 0 170 58" fill="none" xmlns="http://www.w3.org/2000/svg">
<path d="M71.7769 29.0681C70.1467 27.4883 69.3315 25.5474 69.3315 23.1552C69.3315 20.7179 70.1467 18.777 71.7769 17.2424C73.4072 15.7077 75.4903 14.9404 77.9357 14.9404C79.5207 14.9404 80.8792 15.3015 82.1472 15.9334V19.2284C80.9245 18.4159 79.5207 18.0097 77.981 18.0097C76.4413 18.0097 75.2186 18.5062 74.177 19.4992C73.1808 20.4922 72.6826 21.7109 72.6826 23.2004C72.6826 24.735 73.2261 25.9537 74.2223 26.9467C75.2639 27.9397 76.5319 28.391 78.1168 28.391C79.8377 28.391 81.2868 27.9397 82.4642 26.9918V30.2867C81.1509 31.054 79.6565 31.4603 77.9357 31.4603C75.445 31.37 73.4072 30.6027 71.7769 29.0681Z" fill="white"/>
<path d="M85.2266 31.0535V15.2559H88.4871V25.5469L96.1855 15.2559H98.9932V31.0535H95.7327V20.6722L87.9437 31.0535H85.2266Z" fill="white"/>
<path d="M102.481 31.0542V15.2566H105.741V21.1694H112.896V15.2114H116.157V31.0091H112.896V24.1033H105.741V31.0542H102.481Z" fill="white"/>
<path d="M119.643 31.0535V15.2559H122.904V25.5469L130.602 15.2559H133.41V31.0535H130.149V20.6722L122.36 31.0535H119.643Z" fill="white"/>
<path d="M149.169 34.2589L149.214 31.0091H136.942V15.2114H140.202V28.1204H146.859V15.2114H150.12V28.1204H152.339V34.2589H149.169Z" fill="white"/>
<path d="M153.29 31.0544L160.083 15.1665H163.207L170 31.0544H166.513L164.928 27.3984H158.226L156.641 31.0544H153.29ZM159.268 24.6902H163.932L161.623 19.1836L159.268 24.6902Z" fill="white"/>
<path d="M70.9619 41.9773C70.3732 41.3905 70.0562 40.6683 70.0562 39.8107C70.0562 38.908 70.3732 38.1858 70.9619 37.6442C71.5506 37.0574 72.3205 36.7866 73.2262 36.7866C73.8149 36.7866 74.313 36.922 74.7659 37.1477V38.3664C74.313 38.0504 73.8149 37.915 73.2262 37.915C72.6827 37.915 72.1846 38.0956 71.8223 38.4567C71.46 38.8177 71.2789 39.2691 71.2789 39.8107C71.2789 40.3524 71.46 40.8489 71.8676 41.21C72.2299 41.5711 72.728 41.7516 73.3167 41.7516C73.9507 41.7516 74.4941 41.5711 74.9017 41.2551V42.4738C74.4036 42.7446 73.8602 42.88 73.2262 42.88C72.3205 42.8349 71.5959 42.5641 70.9619 41.9773Z" fill="white"/>
<path d="M79.2483 42.7447V40.4879C78.8407 40.6233 78.3879 40.7136 77.935 40.7136C76.5312 40.7136 75.7614 40.0817 75.7614 38.8179V36.9673H76.984V38.6373C76.984 39.3595 77.3463 39.6303 78.1162 39.6303C78.569 39.6303 78.9313 39.54 79.2936 39.3595V36.9673H80.471V42.7899H79.2483V42.7447Z" fill="white"/>
<path d="M81.2413 42.7447L83.7319 36.877H84.9094L87.4 42.7447H86.1321L85.5433 41.3906H83.0527L82.464 42.7447H81.2413ZM83.4602 40.3976H85.1811L84.3207 38.3664L83.4602 40.3976Z" fill="white"/>
<path d="M88.4871 41.9768C87.8984 41.39 87.5814 40.6678 87.5814 39.8103C87.5814 38.9075 87.8984 38.1854 88.4871 37.6437C89.0758 37.057 89.8457 36.7861 90.7514 36.7861C91.3401 36.7861 91.8382 36.9215 92.2911 37.1472V38.3659C91.8382 38.0499 91.3401 37.9145 90.7514 37.9145C90.208 37.9145 89.7098 38.0951 89.3475 38.4562C88.9853 38.8173 88.8041 39.2686 88.8041 39.8103C88.8041 40.3519 88.9853 40.8484 89.3928 41.2095C89.7551 41.5706 90.2532 41.7511 90.8419 41.7511C91.4759 41.7511 92.0193 41.5706 92.4269 41.2546V42.4733C91.9288 42.7441 91.3854 42.8795 90.7514 42.8795C89.8457 42.8344 89.0758 42.5636 88.4871 41.9768Z" fill="white"/>
<path d="M93.0604 36.877H97.9965V37.9602H96.1398V42.7447H94.9171V37.9602H93.0604V36.877Z" fill="white"/>
<path d="M98.8569 42.7447V36.877H100.08V38.8178H101.348C102.027 38.8178 102.616 38.9984 103.023 39.3594C103.431 39.7205 103.612 40.1719 103.612 40.7587C103.612 41.3454 103.431 41.7968 103.023 42.1579C102.616 42.519 102.072 42.6995 101.348 42.6995H98.8569V42.7447ZM100.034 41.6614H101.257C101.982 41.6614 102.389 41.3454 102.389 40.7587C102.389 40.1719 101.982 39.8108 101.257 39.8108H100.034V41.6614Z" fill="white"/>
<path d="M104.517 42.7447V36.877H108.82V37.9602H105.74V39.0886H108.231V40.1268H105.74V41.6163H108.91V42.6995H104.517V42.7447Z" fill="white"/>
<path d="M112.035 42.7447V36.877H116.292V37.9602H113.258V38.9081H114.571C115.25 38.9081 115.794 39.0886 116.201 39.4497C116.609 39.8108 116.79 40.2622 116.79 40.8489C116.79 41.4357 116.609 41.8871 116.201 42.2482C115.794 42.6092 115.25 42.7898 114.571 42.7898H112.035V42.7447ZM113.258 41.6614H114.481C115.16 41.6614 115.567 41.3454 115.567 40.8038C115.567 40.217 115.16 39.9011 114.481 39.9011H113.258V41.6614Z" fill="white"/>
<path d="M117.786 42.7447V36.877H119.009V38.8178H120.096C120.775 38.8178 121.364 38.9984 121.771 39.3594C122.179 39.7205 122.36 40.1719 122.36 40.7587C122.36 41.3454 122.179 41.7968 121.771 42.1579C121.364 42.519 120.82 42.6995 120.096 42.6995H117.786V42.7447ZM119.009 41.6614H120.05C120.775 41.6614 121.182 41.3454 121.182 40.7587C121.182 40.1719 120.775 39.8108 120.05 39.8108H119.009V41.6614ZM123.039 42.7447V36.877H124.262V42.6995H123.039V42.7447Z" fill="white"/>
<path d="M125.168 36.877H130.104V37.9602H128.202V42.7447H126.979V37.9602H125.123V36.877H125.168Z" fill="white"/>
<path d="M130.964 42.7447V36.877H132.187V38.8178H133.455C134.134 38.8178 134.723 38.9984 135.131 39.3594C135.538 39.7205 135.719 40.1719 135.719 40.7587C135.719 41.3454 135.538 41.7968 135.131 42.1579C134.723 42.519 134.18 42.6995 133.455 42.6995H130.964V42.7447ZM132.187 41.6614H133.41C134.134 41.6614 134.542 41.3454 134.542 40.7587C134.542 40.1719 134.134 39.8108 133.41 39.8108H132.187V41.6614Z" fill="white"/>
<path d="M138.799 42.7447V36.877H141.38C142.014 36.877 142.512 37.0575 142.874 37.3735C143.237 37.6894 143.418 38.0956 143.418 38.6373C143.418 39.1789 143.237 39.5851 142.874 39.9011C142.512 40.217 142.014 40.3976 141.38 40.3976H140.021V42.6995H138.799V42.7447ZM139.976 39.4046H141.244C141.833 39.4046 142.15 39.1338 142.15 38.6824C142.15 38.231 141.787 37.9602 141.244 37.9602H139.976V39.4046Z" fill="white"/>
<path d="M143.734 42.7447L145.546 40.2622C144.776 40.0365 144.323 39.4046 144.323 38.6373C144.323 38.1408 144.504 37.6894 144.867 37.3735C145.229 37.0575 145.727 36.877 146.361 36.877H149.078V42.6995H147.855V40.3524H146.814L145.093 42.6995H143.734V42.7447ZM147.855 39.3594V37.9602H146.406C145.863 37.9602 145.546 38.231 145.546 38.6824C145.546 39.1338 145.863 39.4046 146.406 39.4046H147.855V39.3594Z" fill="white"/>
<path d="M149.848 43.9182V41.6614H150.437C150.708 41.2552 150.889 40.7587 151.025 40.1719C151.161 39.5851 151.206 38.7727 151.206 37.8248V36.877H155.327V41.6614H156.143V43.9182H155.01V42.7447H150.98V43.9182H149.848ZM154.15 41.6614V37.9602H152.429C152.429 39.4497 152.293 40.6233 151.795 41.6614H154.15Z" fill="white"/>
<path d="M157.682 37.6439C158.271 37.0572 158.996 36.7412 159.856 36.7412C160.717 36.7412 161.441 37.012 162.03 37.6439C162.619 38.2307 162.89 38.9529 162.89 39.8105C162.89 40.6681 162.619 41.3902 162.03 41.977C161.441 42.5638 160.717 42.8797 159.856 42.8797C158.996 42.8797 158.271 42.6089 157.682 41.977C157.094 41.3902 156.822 40.6681 156.822 39.8105C156.822 38.9529 157.094 38.2307 157.682 37.6439ZM159.856 41.7062C160.354 41.7062 160.807 41.5256 161.124 41.1646C161.486 40.8035 161.622 40.3521 161.622 39.8105C161.622 39.2688 161.441 38.8175 161.124 38.4564C160.762 38.0953 160.354 37.9148 159.856 37.9148C159.358 37.9148 158.905 38.0953 158.543 38.4564C158.181 38.8175 158.045 39.2688 158.045 39.8105C158.045 40.3521 158.226 40.8035 158.543 41.1646C158.905 41.5256 159.358 41.7062 159.856 41.7062Z" fill="white"/>
<path d="M163.977 42.7447V36.877H165.155L166.875 39.3143L168.596 36.877H169.774V42.6995H168.596V38.6824L167.238 40.5781H166.558L165.2 38.6824V42.6995H163.977V42.7447Z" fill="white"/>
<path d="M29.1182 58C13.0874 58 0 45.0008 0 28.9774C0.045285 12.9992 13.0874 0 29.1182 0C45.1491 0 58.2365 12.9992 58.2365 29.0226C58.2365 45.0008 45.1944 58 29.1182 58ZM29.1182 2.84358C14.6271 2.84358 2.85295 14.579 2.85295 29.0226C2.85295 43.4661 14.6271 55.2016 29.1182 55.2016C43.6094 55.2016 55.3835 43.4661 55.3835 29.0226C55.3835 14.579 43.6094 2.84358 29.1182 2.84358Z" fill="white"/>
<path d="M29.1182 52.2227C16.2572 52.2227 5.79639 41.7962 5.79639 28.9776C5.79639 16.1589 16.2572 5.73242 29.1182 5.73242C41.9791 5.73242 52.4399 16.1589 52.4399 28.9776C52.4399 41.7962 41.9791 52.2227 29.1182 52.2227Z" fill="white"/>
<path d="M43.2475 16.7453L43.9268 16.5648L43.2928 16.294C43.2475 16.294 41.9795 15.7523 40.3945 15.4364C39.7153 14.4885 37.451 11.8706 34.2358 11.8706H34.1452C30.1601 11.9157 27.5336 14.0371 25.9033 18.4605C25.4958 19.4986 25.1788 20.7624 24.7712 22.2068C23.5485 26.7204 21.6918 33.4908 14.0387 42.157L13.5405 42.6986L17.5709 41.7508L17.6162 41.7056C24.0919 34.4838 25.9939 27.5329 27.2619 22.929C27.6242 21.5298 27.9864 20.3562 28.3034 19.4083C29.8884 15.1655 32.1074 14.5788 34.0999 14.5336C35.1415 14.5336 36.0925 15.0301 36.7717 15.5718C36.6359 15.6169 36.5 15.662 36.3189 15.7072C34.0546 16.3842 32.5602 17.5126 31.9262 19.0473C31.1564 20.8527 31.564 23.2901 33.1942 26.6753C34.4169 29.248 33.5112 31.7305 30.2507 34.6192C28.0317 36.5601 24.4995 39.1329 23.8202 39.5842L23.0051 40.0356L25.7675 45.9484H28.6657L26.3109 39.9904H26.3562C32.7866 39.1329 36.9076 37.3274 39.353 34.3936C41.5267 31.7305 41.6172 29.0224 41.6625 27.894C41.7078 26.3593 41.1191 24.6893 40.5757 23.1095C40.2134 22.1617 39.7605 20.7624 39.67 19.8146C39.5341 17.8737 42.3871 16.971 43.2475 16.7453ZM32.6508 36.0185C36.3642 32.4978 37.3604 29.0224 35.6396 25.5017C34.4169 22.8838 34.0093 21.0333 34.4169 19.9951C34.8245 18.957 36.3189 18.4154 37.451 18.0994C37.1793 18.641 37.0434 19.2278 37.0434 19.8146C37.0434 21.0784 37.5416 22.4776 38.085 23.9671C38.5831 25.3212 39.0813 26.7655 39.036 27.7585C38.9907 29.3383 38.8548 33.3103 32.6508 36.0185Z" fill="#0078B2"/>
<path d="M39.0805 27.7588C39.1258 26.7206 38.6276 25.3214 38.1295 23.9673C37.5861 22.523 37.088 21.1237 37.088 19.8148C37.088 19.228 37.2238 18.6412 37.4955 18.0996C36.3634 18.3704 34.869 18.9572 34.4614 19.9953C34.0086 21.0786 34.4161 22.9292 35.6841 25.5019C37.3597 29.0677 36.4087 32.4981 32.6953 36.0187C38.8541 33.3105 38.9899 29.3385 39.0805 27.7588Z" fill="#FAD382"/>
</svg>
