<svg width="173" height="56" viewBox="0 0 173 56" fill="none" xmlns="http://www.w3.org/2000/svg">
<path d="M67.8917 28.0716C66.1471 26.395 65.2748 24.3351 65.2748 21.7962C65.2748 19.2094 66.1471 17.1495 67.8917 15.5208C69.6362 13.892 71.8653 13.0776 74.4821 13.0776C76.1782 13.0776 77.632 13.4609 78.9888 14.1315V17.6285C77.6804 16.7663 76.1782 16.3351 74.5306 16.3351C72.883 16.3351 71.5746 16.8621 70.46 17.916C69.3939 18.9699 68.8608 20.2633 68.8608 21.8441C68.8608 23.4728 69.4423 24.7663 70.5085 25.8202C71.623 26.874 72.9799 27.3531 74.676 27.3531C76.5174 27.3531 78.0681 26.874 79.3281 25.8681V29.3651C77.9227 30.1794 76.3236 30.6106 74.4821 30.6106C71.8169 30.5148 69.6362 29.7004 67.8917 28.0716Z" fill="#0078B2"/>
<path d="M82.2356 30.1793V13.4128H85.7247V24.335L93.9628 13.4128H96.9673V30.1793H93.5266V19.1613L85.1916 30.1793H82.2356Z" fill="#0078B2"/>
<path d="M100.747 30.1793V13.4128H104.236V19.6883H111.893V13.4128H115.382V30.1793H111.893V22.8021H104.236V30.1793H100.747Z" fill="#0078B2"/>
<path d="M119.113 30.1793V13.4128H122.602V24.335L130.84 13.4128H133.845V30.1793H130.356V19.1613L122.021 30.1793H119.113Z" fill="#0078B2"/>
<path d="M150.66 33.5805L150.709 30.1793H137.576V13.4128H141.065V27.1134H148.189V13.4128H151.678V27.1134H154.052V33.6284H150.66V33.5805Z" fill="#0078B2"/>
<path d="M155.07 30.1794L162.339 13.3171H165.683L173 30.1794H169.269L167.573 26.2992H160.401L158.704 30.1794H155.07ZM161.515 23.4249H166.506L164.035 17.5806L161.515 23.4249Z" fill="#0078B2"/>
<path d="M66.244 41.8685C65.6141 41.2457 65.2748 40.4792 65.2748 39.5212C65.2748 38.5631 65.6141 37.7966 66.244 37.1739C66.874 36.5511 67.6978 36.2637 68.7155 36.2637C69.3454 36.2637 69.8785 36.4074 70.3631 36.6469V37.9403C69.8785 37.605 69.3454 37.4613 68.7155 37.4613C68.1339 37.4613 67.6009 37.6529 67.2132 38.0361C66.8255 38.4194 66.6317 38.8984 66.6317 39.5212C66.6317 40.096 66.8255 40.623 67.2617 41.0062C67.6494 41.3894 68.1824 41.581 68.8124 41.581C69.4908 41.581 70.0723 41.3894 70.5569 41.0541V42.3475C70.0239 42.6349 69.4423 42.8265 68.7639 42.8265C67.6978 42.7786 66.874 42.4433 66.244 41.8685Z" fill="#0078B2"/>
<path d="M75.1605 42.6345V40.1914C74.7244 40.3351 74.2398 40.4309 73.7552 40.4309C72.2529 40.4309 71.4291 39.7603 71.4291 38.419V36.407H72.7375V38.1794C72.7375 38.9459 73.1252 39.2333 73.949 39.2333C74.4336 39.2333 74.8213 39.1375 75.209 38.9459V36.407H76.5174V42.6345H75.1605Z" fill="#0078B2"/>
<path d="M77.2927 42.6346L80.0065 36.3591H81.2664L83.9801 42.6346H82.6233L81.9933 41.1975H79.328L78.698 42.6346H77.2927ZM79.6672 40.1436H81.5087L80.588 37.9879L79.6672 40.1436Z" fill="#0078B2"/>
<path d="M85.0947 41.8682C84.4647 41.2455 84.1255 40.479 84.1255 39.5209C84.1255 38.5628 84.4647 37.7964 85.0947 37.1736C85.7246 36.5509 86.5485 36.2634 87.5661 36.2634C88.1961 36.2634 88.7291 36.4071 89.2137 36.6467V37.9401C88.7291 37.6047 88.1961 37.461 87.5661 37.461C86.9846 37.461 86.4515 37.6527 86.0639 38.0359C85.6762 38.4191 85.4823 38.8982 85.4823 39.5209C85.4823 40.0958 85.6762 40.6227 86.1123 41.0059C86.5 41.3892 87.033 41.5808 87.663 41.5808C88.3414 41.5808 88.923 41.3892 89.4076 41.0538V42.3473C88.8745 42.6347 88.293 42.8263 87.6146 42.8263C86.5485 42.7784 85.7246 42.4431 85.0947 41.8682Z" fill="#0078B2"/>
<path d="M90.0375 36.407H95.3196V37.5567H93.3328V42.6345H92.0244V37.5567H90.0375V36.407Z" fill="#0078B2"/>
<path d="M96.2888 42.6345V36.407H97.5972V38.4669H99.0025C99.7294 38.4669 100.359 38.6585 100.796 39.0417C101.232 39.4249 101.474 39.9519 101.474 40.5267C101.474 41.1495 101.28 41.6285 100.796 42.0118C100.359 42.395 99.7779 42.5866 99.0025 42.5866H96.2888V42.6345ZM97.5972 41.4848H98.9056C99.681 41.4848 100.117 41.1495 100.117 40.5267C100.117 39.904 99.681 39.5208 98.9056 39.5208H97.5972V41.4848Z" fill="#0078B2"/>
<path d="M102.395 42.6345V36.407H107.047V37.5567H103.703V38.7543H106.417V39.904H103.703V41.5327H107.144V42.6345H102.395Z" fill="#0078B2"/>
<path d="M110.487 42.6345V36.407H115.091V37.5567H111.796V38.5627H113.201C113.928 38.5627 114.51 38.7543 114.946 39.1375C115.382 39.5208 115.576 39.9998 115.576 40.6226C115.576 41.2453 115.382 41.7243 114.946 42.1076C114.51 42.4908 113.928 42.6824 113.201 42.6824H110.487V42.6345ZM111.796 41.4848H113.104C113.831 41.4848 114.267 41.1495 114.267 40.5267C114.267 39.904 113.831 39.5687 113.104 39.5687H111.796V41.4848Z" fill="#0078B2"/>
<path d="M116.69 42.6345V36.407H117.999V38.4669H119.162C119.889 38.4669 120.519 38.6585 120.955 39.0417C121.391 39.4249 121.633 39.9519 121.633 40.5267C121.633 41.1495 121.439 41.6285 120.955 42.0118C120.519 42.395 119.937 42.5866 119.162 42.5866H116.69V42.6345ZM117.999 41.4848H119.113C119.889 41.4848 120.325 41.1495 120.325 40.5267C120.325 39.904 119.889 39.5208 119.113 39.5208H117.999V41.4848ZM122.36 42.6345V36.407H123.668V42.6345H122.36Z" fill="#0078B2"/>
<path d="M124.638 36.407H129.92V37.5567H127.933V42.6345H126.624V37.5567H124.638V36.407Z" fill="#0078B2"/>
<path d="M130.889 42.6345V36.407H132.197V38.4669H133.603C134.329 38.4669 134.959 38.6585 135.396 39.0417C135.832 39.4249 136.074 39.9519 136.074 40.5267C136.074 41.1495 135.88 41.6285 135.396 42.0118C134.959 42.395 134.378 42.5866 133.603 42.5866H130.889V42.6345ZM132.197 41.4848H133.506C134.281 41.4848 134.717 41.1495 134.717 40.5267C134.717 39.904 134.281 39.5208 133.506 39.5208H132.197V41.4848Z" fill="#0078B2"/>
<path d="M139.321 42.6345V36.407H142.083C142.761 36.407 143.294 36.5986 143.682 36.9339C144.07 37.2693 144.264 37.7483 144.264 38.2752C144.264 38.8501 144.07 39.2812 143.682 39.6166C143.294 39.9519 142.761 40.1435 142.083 40.1435H140.629V42.6345H139.321ZM140.629 39.0417H141.986C142.616 39.0417 142.955 38.7543 142.955 38.2752C142.955 37.7962 142.568 37.5088 141.986 37.5088H140.629V39.0417Z" fill="#0078B2"/>
<path d="M144.651 42.6346L146.638 39.9519C145.814 39.7124 145.33 39.0418 145.33 38.2274C145.33 37.7004 145.523 37.2214 145.911 36.8861C146.299 36.5507 146.832 36.3591 147.51 36.3591H150.418V42.5867H149.109V40.0478H147.995L146.153 42.5867H144.651V42.6346ZM149.109 39.0418V37.5088H147.559C146.977 37.5088 146.638 37.7963 146.638 38.2753C146.638 38.7543 146.977 39.0418 147.559 39.0418H149.109Z" fill="#0078B2"/>
<path d="M151.29 43.9279V41.4848H151.92C152.211 41.0537 152.405 40.5267 152.55 39.8561C152.696 39.2333 152.744 38.3711 152.744 37.3651V36.407H157.202V41.4848H158.075V43.9279H156.863V42.6345H152.55V43.9279H151.29ZM155.894 41.4848V37.5567H154.052C154.052 39.1375 153.907 40.383 153.374 41.4848H155.894Z" fill="#0078B2"/>
<path d="M159.722 37.2215C160.352 36.5988 161.127 36.2634 162.048 36.2634C162.969 36.2634 163.744 36.5988 164.374 37.2215C165.004 37.8443 165.295 38.6107 165.295 39.5209C165.295 40.4311 164.956 41.1976 164.374 41.8203C163.744 42.4431 162.969 42.7784 162.048 42.7784C161.127 42.7784 160.304 42.4431 159.722 41.8203C159.141 41.1976 158.801 40.4311 158.801 39.5209C158.753 38.6107 159.092 37.8443 159.722 37.2215ZM162.048 41.5329C162.63 41.5329 163.066 41.3413 163.454 40.958C163.841 40.5748 164.035 40.0958 164.035 39.473C164.035 38.8982 163.841 38.3712 163.454 37.988C163.066 37.6047 162.63 37.4131 162.048 37.4131C161.467 37.4131 161.031 37.6047 160.643 37.988C160.255 38.3712 160.11 38.8503 160.11 39.473C160.11 40.0479 160.304 40.5748 160.643 40.958C161.031 41.3413 161.515 41.5329 162.048 41.5329Z" fill="#0078B2"/>
<path d="M166.506 42.6345V36.407H167.815L169.656 38.9938L171.498 36.407H172.758V42.6345H171.498V38.3711L170.044 40.383H169.317L167.815 38.3711V42.6345H166.506Z" fill="#0078B2"/>
<path d="M28.3487 56C12.6964 56 0 43.4491 0 28.024C0 12.5988 12.6964 0 28.3487 0C44.0011 0 56.6975 12.5509 56.6975 28.024C56.6975 43.497 43.9527 56 28.3487 56ZM28.3487 2.82635C14.2955 2.82635 2.8591 14.1317 2.8591 28.024C2.8591 41.9162 14.2955 53.2216 28.3487 53.2216C42.402 53.2216 53.8384 41.9162 53.8384 28.024C53.8384 14.1317 42.402 2.82635 28.3487 2.82635Z" fill="#0078B2"/>
<path d="M39.2521 27.6407C39.3006 26.5389 38.7191 25.0059 38.186 23.5209C37.6045 21.9401 37.0715 20.4071 37.0715 19.0179C37.0715 18.3473 37.2168 17.7245 37.5076 17.1497C36.2961 17.485 34.6485 18.1077 34.1639 19.2095C33.6793 20.3592 34.1154 22.3712 35.4723 25.1976C37.3138 29.0778 36.2477 32.8143 32.1771 36.6467C39.0098 33.6287 39.1552 29.3173 39.2521 27.6407Z" fill="#FEDA99"/>
<path d="M43.8073 15.6169L44.5342 15.4253L43.8073 15.1378C43.7589 15.0899 42.3535 14.563 40.609 14.2277C39.8336 13.2217 37.3622 10.3474 33.8731 10.3474H33.7762C29.4149 10.3953 26.5558 12.6947 24.7143 17.533C24.2782 18.6827 23.8905 20.0241 23.4544 21.6049C22.0975 26.4911 20.0622 33.8684 11.6787 43.3055L11.1457 43.8803L15.604 42.8265L15.6524 42.7785C22.7759 34.9223 24.8597 27.3534 26.265 22.3235C26.7012 20.8384 27.0404 19.4971 27.428 18.4911C29.1726 13.8923 31.5955 13.2217 33.7762 13.1738C34.8908 13.1738 35.9569 13.7486 36.6838 14.3235C36.5384 14.3714 36.3446 14.4193 36.1992 14.4672C33.6793 15.1857 32.0801 16.4312 31.4017 18.06C30.5779 20.072 31.014 22.7067 32.807 26.3953C34.1639 29.2217 33.1463 31.9043 29.5603 35.066C27.1373 37.1738 23.2605 39.9522 22.5336 40.4791L21.6614 41.0061L24.7628 47.4253H27.9611L25.2958 40.9103H25.3443C32.4194 39.9522 36.9261 38.036 39.5913 34.8265C41.9659 31.9522 42.1112 28.9821 42.1597 27.7366C42.2082 26.06 41.5782 24.2875 40.9482 22.5151C40.5605 21.4612 40.0759 19.9282 39.979 18.9223C39.7852 16.8145 42.8866 15.8564 43.8073 15.6169ZM32.1771 36.5989C36.2477 32.7666 37.3622 28.9821 35.4723 25.1498C34.1154 22.3235 33.6793 20.3115 34.1639 19.1618C34.6485 18.06 36.2477 17.4372 37.5076 17.1019C37.2168 17.7247 37.0715 18.3474 37.0715 18.9702C37.0715 20.3594 37.653 21.8923 38.186 23.4732C38.7191 24.9582 39.3006 26.4911 39.2521 27.5929C39.1552 29.3175 39.0098 33.6288 32.1771 36.5989Z" fill="#0078B2"/>
</svg>
